<svg width="1200" height="800" viewBox="0 0 1200 800" fill="none" xmlns="http://www.w3.org/2000/svg">
  <rect width="1200" height="800" fill="#FFFFFF"/>
  <text x="60" y="48" font-family="monospace" font-size="11" letter-spacing="2" fill="#888888">FALLBACK STATES  ·  INTERFACE SKETCH</text>
  <line x1="60" y1="60" x2="1140" y2="60" stroke="#E0E0E0" stroke-width="1"/>

  <!-- Chrome -->
  <rect x="60" y="88" width="1080" height="48" rx="6" fill="#F5F5F5" stroke="#E0E0E0" stroke-width="1"/>
  <text x="80" y="117" font-family="monospace" font-size="10" letter-spacing="2" fill="#444444">IDAS OPERATIONS</text>
  <text x="1120" y="117" font-family="monospace" font-size="9" fill="#888888" text-anchor="end">Mon 20 May  ·  09:41</text>

  <!-- ── LEFT: MAIN CLASSIFICATION QUEUE ───────────────────────── -->
  <rect x="60" y="144" width="530" height="596" rx="0" fill="#FFFFFF" stroke="#E0E0E0" stroke-width="1"/>
  <rect x="60" y="144" width="530" height="44" fill="#F5F5F5" stroke="#E0E0E0" stroke-width="1"/>
  <text x="80" y="164" font-family="monospace" font-size="10" letter-spacing="1.5" fill="#888888">CLASSIFICATION QUEUE</text>
  <text x="80" y="178" font-family="monospace" font-size="8" letter-spacing="1" fill="#888888">AI-confident  ·  normal SLA  ·  auto-routed</text>
  <line x1="60" y1="188" x2="590" y2="188" stroke="#E0E0E0" stroke-width="1"/>

  <!-- Queue rows — compact, no uncertainty markers -->
  <rect x="60" y="196" width="530" height="40" fill="#FFFFFF" stroke="#E0E0E0" stroke-width="1"/>
  <text x="80" y="211" font-family="monospace" font-size="9" fill="#888888">DOC-2241</text>
  <rect x="156" y="201" width="80" height="12" rx="2" fill="#E0E0E0"/>
  <rect x="444" y="201" width="72" height="18" rx="3" fill="#F5F5F5" stroke="#E0E0E0" stroke-width="1"/>
  <text x="480" y="213" font-family="monospace" font-size="8" fill="#888888" text-anchor="middle">CLAIM</text>
  <text x="556" y="213" font-family="monospace" font-size="8" fill="#888888" text-anchor="middle">→ Claims</text>
  <text x="80" y="229" font-family="monospace" font-size="8" fill="#888888">Personal injury claim — Q3 filing</text>

  <rect x="60" y="236" width="530" height="40" fill="#FFFFFF" stroke="#E0E0E0" stroke-width="1"/>
  <text x="80" y="251" font-family="monospace" font-size="9" fill="#888888">DOC-2242</text>
  <rect x="156" y="241" width="96" height="12" rx="2" fill="#E0E0E0"/>
  <rect x="444" y="241" width="72" height="18" rx="3" fill="#F5F5F5" stroke="#E0E0E0" stroke-width="1"/>
  <text x="480" y="253" font-family="monospace" font-size="8" fill="#888888" text-anchor="middle">INVOICE</text>
  <text x="556" y="253" font-family="monospace" font-size="8" fill="#888888" text-anchor="middle">→ Finance</text>
  <text x="80" y="269" font-family="monospace" font-size="8" fill="#888888">Supplier invoice — maintenance</text>

  <rect x="60" y="276" width="530" height="40" fill="#FFFFFF" stroke="#E0E0E0" stroke-width="1"/>
  <text x="80" y="291" font-family="monospace" font-size="9" fill="#888888">DOC-2243</text>
  <rect x="156" y="281" width="112" height="12" rx="2" fill="#E0E0E0"/>
  <rect x="444" y="281" width="72" height="18" rx="3" fill="#F5F5F5" stroke="#E0E0E0" stroke-width="1"/>
  <text x="480" y="293" font-family="monospace" font-size="8" fill="#888888" text-anchor="middle">LEGAL</text>
  <text x="556" y="293" font-family="monospace" font-size="8" fill="#888888" text-anchor="middle">→ Legal</text>
  <text x="80" y="309" font-family="monospace" font-size="8" fill="#888888">Regulatory notice — Q2</text>

  <!-- Muted row count -->
  <text x="80" y="344" font-family="monospace" font-size="8" fill="#888888">+ 41 more  ·  all auto-routed</text>

  <!-- Capacity chart area -->
  <text x="80" y="392" font-family="monospace" font-size="9" letter-spacing="1.5" fill="#888888">QUEUE VOLUME  ·  LAST 7 DAYS</text>
  <line x1="80" y1="398" x2="572" y2="398" stroke="#E0E0E0" stroke-width="1"/>

  <!-- Day bars — main queue (taller) + fallback queue (shorter, annotated) -->
  <!-- Day 1 -->
  <rect x="96" y="530" width="42" height="130" rx="2" fill="#E0E0E0"/>
  <rect x="96" y="468" width="42" height="62" rx="2" fill="#EBEBEB" stroke="#E0E0E0" stroke-width="1"/>
  <text x="117" y="550" font-family="monospace" font-size="8" fill="#888888" transform="rotate(-90 117 550)">MON</text>
  <!-- Day 2 -->
  <rect x="154" y="510" width="42" height="150" rx="2" fill="#E0E0E0"/>
  <rect x="154" y="462" width="42" height="48" rx="2" fill="#EBEBEB" stroke="#E0E0E0" stroke-width="1"/>
  <!-- Day 3 -->
  <rect x="212" y="520" width="42" height="140" rx="2" fill="#E0E0E0"/>
  <rect x="212" y="476" width="42" height="44" rx="2" fill="#EBEBEB" stroke="#E0E0E0" stroke-width="1"/>
  <!-- Day 4 — spike -->
  <rect x="270" y="480" width="42" height="180" rx="2" fill="#E0E0E0"/>
  <rect x="270" y="420" width="42" height="60" rx="2" fill="#FFE500" fill-opacity="0.4" stroke="#7A5F00" stroke-width="1"/>
  <!-- Day 5 -->
  <rect x="328" y="500" width="42" height="160" rx="2" fill="#E0E0E0"/>
  <rect x="328" y="456" width="42" height="44" rx="2" fill="#EBEBEB" stroke="#E0E0E0" stroke-width="1"/>
  <!-- Day 6 -->
  <rect x="386" y="515" width="42" height="145" rx="2" fill="#E0E0E0"/>
  <rect x="386" y="472" width="42" height="43" rx="2" fill="#EBEBEB" stroke="#E0E0E0" stroke-width="1"/>
  <!-- Day 7 — today, lower -->
  <rect x="444" y="530" width="42" height="130" rx="2" fill="#E0E0E0"/>
  <rect x="444" y="492" width="42" height="38" rx="2" fill="#EBEBEB" stroke="#E0E0E0" stroke-width="1"/>
  <!-- Baseline -->
  <line x1="80" y1="660" x2="530" y2="660" stroke="#E0E0E0" stroke-width="1"/>

  <!-- Annotation: fallback spike is a leading indicator -->
  <line x1="291" y1="420" x2="291" y2="400" stroke="#7A5F00" stroke-width="1.5"/>
  <line x1="291" y1="400" x2="200" y2="380" stroke="#7A5F00" stroke-width="1.5"/>
  <rect x="80" y="355" width="118" height="24" rx="3" fill="#FFFFFF" stroke="#7A5F00" stroke-width="1"/>
  <text x="139" y="366" font-family="monospace" font-size="8" fill="#7A5F00" text-anchor="middle">fallback spike —</text>
  <text x="139" y="376" font-family="monospace" font-size="8" fill="#7A5F00" text-anchor="middle">anticipate load</text>

  <!-- Legend for bars -->
  <rect x="80" y="670" width="14" height="10" rx="2" fill="#E0E0E0"/>
  <text x="100" y="679" font-family="monospace" font-size="8" fill="#888888">main queue</text>
  <rect x="192" y="670" width="14" height="10" rx="2" fill="#EBEBEB" stroke="#E0E0E0" stroke-width="1"/>
  <text x="212" y="679" font-family="monospace" font-size="8" fill="#888888">fallback queue</text>
  <rect x="330" y="670" width="14" height="10" rx="2" fill="#FFE500" fill-opacity="0.4" stroke="#7A5F00" stroke-width="1"/>
  <text x="350" y="679" font-family="monospace" font-size="8" fill="#7A5F00">spike = capacity signal</text>

  <!-- ── RIGHT: FALLBACK QUEUE ──────────────────────────────────── -->
  <rect x="610" y="144" width="530" height="596" rx="0" fill="#FFFFFF" stroke="#0A0A0A" stroke-width="2.5"/>
  <rect x="610" y="144" width="530" height="44" fill="#0A0A0A"/>
  <text x="630" y="164" font-family="monospace" font-size="10" letter-spacing="2" fill="#FFFFFF">FALLBACK REVIEW QUEUE</text>
  <text x="630" y="178" font-family="monospace" font-size="8" letter-spacing="1" fill="#888888">separate SLA  ·  dedicated ownership  ·  different triage rhythm</text>
  <line x1="610" y1="188" x2="1140" y2="188" stroke="#444444" stroke-width="1"/>

  <!-- Fallback queue row — expanded, showing reasoning -->
  <rect x="610" y="196" width="530" height="120" fill="#FFFFFF" stroke="#E0E0E0" stroke-width="1"/>
  <rect x="610" y="196" width="530" height="20" fill="#FFE500" fill-opacity="0.10"/>
  <text x="630" y="210" font-family="monospace" font-size="9" fill="#7A5F00">DOC-2244  ·  UNDER REVIEW</text>
  <!-- AI lean -->
  <text x="630" y="234" font-family="monospace" font-size="8" letter-spacing="1.5" fill="#888888">AI LEAN</text>
  <rect x="630" y="240" width="180" height="18" rx="3" fill="#0A0A0A"/>
  <text x="720" y="252" font-family="monospace" font-size="9" fill="#FFFFFF" text-anchor="middle">Legal Correspondence</text>
  <!-- Confidence — prominent here -->
  <text x="820" y="234" font-family="monospace" font-size="8" letter-spacing="1.5" fill="#888888">CONFIDENCE</text>
  <rect x="820" y="240" width="80" height="18" rx="3" fill="#FFE500" fill-opacity="0.25" stroke="#7A5F00" stroke-width="1"/>
  <text x="860" y="252" font-family="monospace" font-size="10" fill="#7A5F00" text-anchor="middle">0.63</text>
  <!-- Reason -->
  <text x="630" y="278" font-family="monospace" font-size="8" letter-spacing="1.5" fill="#888888">REASON</text>
  <rect x="630" y="284" width="490" height="20" rx="3" fill="#F5F5F5" stroke="#E0E0E0" stroke-width="1"/>
  <rect x="642" y="291" width="280" height="6" rx="2" fill="#E0E0E0"/>
  <!-- Actions -->
  <rect x="630" y="308" width="136" height="18" rx="3" fill="#0A0A0A"/>
  <text x="698" y="320" font-family="monospace" font-size="8" fill="#FFFFFF" text-anchor="middle">CONFIRM ROUTE</text>
  <rect x="774" y="308" width="136" height="18" rx="3" fill="#FFFFFF" stroke="#0A0A0A" stroke-width="1.5"/>
  <text x="842" y="320" font-family="monospace" font-size="8" fill="#0A0A0A" text-anchor="middle">RECLASSIFY</text>

  <!-- Annotation callouts on the right card -->
  <!-- Confidence is prominent here (unlike main queue) -->
  <line x1="900" y1="249" x2="960" y2="238" stroke="#E0E0E0" stroke-width="1" stroke-dasharray="3 3"/>
  <rect x="962" y="222" width="162" height="32" rx="4" fill="#FFFFFF" stroke="#E0E0E0" stroke-width="1"/>
  <text x="1043" y="235" font-family="monospace" font-size="8.5" fill="#888888" text-anchor="middle">confidence prominent here —</text>
  <text x="1043" y="247" font-family="monospace" font-size="8.5" fill="#0A0A0A" text-anchor="middle">operator needs the number</text>

  <!-- Second fallback row -->
  <rect x="610" y="316" width="530" height="96" fill="#FFFFFF" stroke="#E0E0E0" stroke-width="1"/>
  <rect x="610" y="316" width="530" height="20" fill="#FFE500" fill-opacity="0.06"/>
  <text x="630" y="330" font-family="monospace" font-size="9" fill="#7A5F00">DOC-2251  ·  UNDER REVIEW</text>
  <text x="630" y="354" font-family="monospace" font-size="8" letter-spacing="1.5" fill="#888888">AI LEAN</text>
  <rect x="630" y="360" width="180" height="18" rx="3" fill="#0A0A0A"/>
  <text x="720" y="372" font-family="monospace" font-size="9" fill="#FFFFFF" text-anchor="middle">Policy Endorsement</text>
  <text x="820" y="354" font-family="monospace" font-size="8" letter-spacing="1.5" fill="#888888">CONFIDENCE</text>
  <rect x="820" y="360" width="80" height="18" rx="3" fill="#FFE500" fill-opacity="0.25" stroke="#7A5F00" stroke-width="1"/>
  <text x="860" y="372" font-family="monospace" font-size="10" fill="#7A5F00" text-anchor="middle">0.58</text>
  <text x="630" y="398" font-family="monospace" font-size="8" letter-spacing="1.5" fill="#888888">REASON</text>
  <rect x="630" y="404" width="490" height="20" rx="3" fill="#F5F5F5" stroke="#E0E0E0" stroke-width="1"/>
  <rect x="642" y="411" width="200" height="6" rx="2" fill="#E0E0E0"/>

  <!-- Muted rows below -->
  <text x="630" y="444" font-family="monospace" font-size="8" fill="#888888">+ 4 more in fallback  ·  SLA: 4h</text>

  <!-- Queue footer — SLA + owner -->
  <rect x="610" y="692" width="530" height="48" fill="#F5F5F5" stroke="#E0E0E0" stroke-width="1"/>
  <text x="630" y="712" font-family="monospace" font-size="9" letter-spacing="1.5" fill="#888888">SLA  ·  4 hours</text>
  <text x="630" y="726" font-family="monospace" font-size="9" letter-spacing="1" fill="#444444">Assigned to: Fallback Review Team — not the main queue operator</text>

  <!-- Legend -->
  <line x1="60" y1="754" x2="1140" y2="754" stroke="#E0E0E0" stroke-width="1"/>
  <rect x="60" y="762" width="12" height="12" rx="2" fill="#FFFFFF" stroke="#0A0A0A" stroke-width="2.5"/>
  <text x="78" y="772" font-family="monospace" font-size="9" fill="#444444">fallback queue — separate queue, not a filter</text>
  <rect x="340" y="762" width="12" height="12" rx="2" fill="#FFE500" fill-opacity="0.3" stroke="#7A5F00" stroke-width="1"/>
  <text x="358" y="772" font-family="monospace" font-size="9" fill="#444444">capacity spike — leading indicator</text>
  <rect x="546" y="762" width="12" height="12" rx="2" fill="#E0E0E0"/>
  <text x="564" y="772" font-family="monospace" font-size="9" fill="#444444">main queue — AI-confident, compact</text>
  <text x="1140" y="772" font-family="monospace" font-size="9" fill="#888888" text-anchor="end">Allianz · IDAS · Fallback States</text>
</svg>
