<svg width="1200" height="800" viewBox="0 0 1200 800" fill="none" xmlns="http://www.w3.org/2000/svg">
  <rect width="1200" height="800" fill="#FAF7F2"/>
  <!-- Header -->
  <rect width="1200" height="56" fill="#003781"/>
  <rect x="24" y="18" width="140" height="20" rx="4" fill="white" fill-opacity="0.2"/>
  <!-- Editor left pane -->
  <rect x="24" y="80" width="560" height="480" rx="12" fill="white" stroke="#DDE3EE"/>
  <rect x="44" y="104" width="180" height="14" rx="3" fill="#0D1F3C" fill-opacity="0.7"/>
  <rect x="44" y="132" width="520" height="1" fill="#DDE3EE"/>
  <!-- Code-like lines -->
  <rect x="44" y="148" width="320" height="10" rx="2" fill="#003781" fill-opacity="0.4"/>
  <rect x="44" y="168" width="440" height="10" rx="2" fill="#3D5475" fill-opacity="0.3"/>
  <rect x="44" y="188" width="280" height="10" rx="2" fill="#3D5475" fill-opacity="0.3"/>
  <rect x="44" y="208" width="380" height="10" rx="2" fill="#3D5475" fill-opacity="0.3"/>
  <rect x="44" y="228" width="200" height="10" rx="2" fill="#3D5475" fill-opacity="0.2"/>
  <rect x="44" y="268" width="360" height="10" rx="2" fill="#003781" fill-opacity="0.4"/>
  <rect x="44" y="288" width="480" height="10" rx="2" fill="#3D5475" fill-opacity="0.3"/>
  <rect x="44" y="308" width="300" height="10" rx="2" fill="#3D5475" fill-opacity="0.3"/>
  <!-- Cursor blink -->
  <rect x="44" y="348" width="2" height="18" rx="1" fill="#00A0E9"/>
  <!-- Test panel right -->
  <rect x="608" y="80" width="568" height="480" rx="12" fill="white" stroke="#DDE3EE"/>
  <rect x="628" y="104" width="120" height="14" rx="3" fill="#0D1F3C" fill-opacity="0.7"/>
  <rect x="628" y="132" width="528" height="1" fill="#DDE3EE"/>
  <!-- Test input -->
  <rect x="628" y="152" width="528" height="80" rx="8" fill="#FAF7F2" stroke="#DDE3EE"/>
  <rect x="644" y="168" width="300" height="10" rx="2" fill="#3D5475" fill-opacity="0.4"/>
  <rect x="644" y="188" width="200" height="10" rx="2" fill="#3D5475" fill-opacity="0.3"/>
  <!-- Run button -->
  <rect x="1056" y="244" width="80" height="32" rx="6" fill="#003781"/>
  <rect x="1072" y="254" width="48" height="10" rx="2" fill="white"/>
  <!-- Result -->
  <rect x="628" y="300" width="528" height="120" rx="8" fill="#003781" fill-opacity="0.04" stroke="#DDE3EE"/>
  <rect x="648" y="320" width="80" height="12" rx="3" fill="#003781" fill-opacity="0.5"/>
  <rect x="648" y="344" width="440" height="8" rx="2" fill="#3D5475" fill-opacity="0.3"/>
  <rect x="648" y="360" width="360" height="8" rx="2" fill="#3D5475" fill-opacity="0.3"/>
  <!-- Confidence badge -->
  <rect x="648" y="384" width="100" height="24" rx="6" fill="#00A0E9" fill-opacity="0.15"/>
  <rect x="664" y="392" width="60" height="8" rx="2" fill="#0057B8" fill-opacity="0.6"/>
  <!-- Bottom bar -->
  <rect x="24" y="584" width="1152" height="48" rx="8" fill="#003781" fill-opacity="0.04" stroke="#DDE3EE"/>
  <rect x="44" y="600" width="80" height="14" rx="3" fill="#3D5475" fill-opacity="0.4"/>
  <rect x="1056" y="596" width="96" height="22" rx="6" fill="#003781"/>
  <rect x="1076" y="604" width="56" height="8" rx="2" fill="white"/>
</svg>
